<mxfile host="app.diagrams.net" modified="2023-09-09T18:32:40.436Z" agent="Mozilla/5.0 (Windows NT 10.0; Win64; x64; rv:109.0) Gecko/20100101 Firefox/117.0" etag="rKNqn_9bivAHUm4ru2-A" version="21.7.4" type="device">
  <diagram name="Page-1" id="tAEv_1mO5R254MyXImxN">
    <mxGraphModel dx="1434" dy="754" grid="1" gridSize="10" guides="1" tooltips="1" connect="1" arrows="1" fold="1" page="1" pageScale="1" pageWidth="850" pageHeight="1100" math="0" shadow="0">
      <root>
        <mxCell id="0" />
        <mxCell id="1" parent="0" />
        <mxCell id="lc8T_BBi0XC4PdgkMQ6E-13" style="edgeStyle=orthogonalEdgeStyle;rounded=0;orthogonalLoop=1;jettySize=auto;html=1;exitX=0.5;exitY=0;exitDx=0;exitDy=0;entryX=0.5;entryY=1;entryDx=0;entryDy=0;" parent="1" source="lc8T_BBi0XC4PdgkMQ6E-1" target="lc8T_BBi0XC4PdgkMQ6E-5" edge="1">
          <mxGeometry relative="1" as="geometry" />
        </mxCell>
        <mxCell id="lc8T_BBi0XC4PdgkMQ6E-14" value="Tombol Tutorial" style="edgeLabel;html=1;align=center;verticalAlign=middle;resizable=0;points=[];" parent="lc8T_BBi0XC4PdgkMQ6E-13" vertex="1" connectable="0">
          <mxGeometry x="-0.34" y="-1" relative="1" as="geometry">
            <mxPoint x="-41" as="offset" />
          </mxGeometry>
        </mxCell>
        <mxCell id="lc8T_BBi0XC4PdgkMQ6E-15" style="edgeStyle=orthogonalEdgeStyle;rounded=0;orthogonalLoop=1;jettySize=auto;html=1;exitX=0;exitY=0.5;exitDx=0;exitDy=0;entryX=1;entryY=0.5;entryDx=0;entryDy=0;" parent="1" source="lc8T_BBi0XC4PdgkMQ6E-1" target="lc8T_BBi0XC4PdgkMQ6E-10" edge="1">
          <mxGeometry relative="1" as="geometry" />
        </mxCell>
        <mxCell id="lc8T_BBi0XC4PdgkMQ6E-16" value="Tombol Start" style="edgeLabel;html=1;align=center;verticalAlign=middle;resizable=0;points=[];" parent="lc8T_BBi0XC4PdgkMQ6E-15" vertex="1" connectable="0">
          <mxGeometry x="0.42" y="-1" relative="1" as="geometry">
            <mxPoint x="21" y="-9" as="offset" />
          </mxGeometry>
        </mxCell>
        <mxCell id="lc8T_BBi0XC4PdgkMQ6E-24" style="edgeStyle=orthogonalEdgeStyle;rounded=0;orthogonalLoop=1;jettySize=auto;html=1;entryX=0.5;entryY=0;entryDx=0;entryDy=0;" parent="1" source="lc8T_BBi0XC4PdgkMQ6E-1" target="lc8T_BBi0XC4PdgkMQ6E-23" edge="1">
          <mxGeometry relative="1" as="geometry">
            <Array as="points">
              <mxPoint x="430" y="590" />
              <mxPoint x="230" y="590" />
            </Array>
          </mxGeometry>
        </mxCell>
        <mxCell id="lc8T_BBi0XC4PdgkMQ6E-25" value="Tombol Settings" style="edgeLabel;html=1;align=center;verticalAlign=middle;resizable=0;points=[];" parent="lc8T_BBi0XC4PdgkMQ6E-24" vertex="1" connectable="0">
          <mxGeometry x="0.1231" y="-2" relative="1" as="geometry">
            <mxPoint x="-12" y="-8" as="offset" />
          </mxGeometry>
        </mxCell>
        <mxCell id="IrPFySG2Cv3QOhDxDBdE-4" style="edgeStyle=orthogonalEdgeStyle;rounded=0;orthogonalLoop=1;jettySize=auto;html=1;exitX=0.75;exitY=1;exitDx=0;exitDy=0;entryX=0;entryY=0.5;entryDx=0;entryDy=0;" parent="1" source="lc8T_BBi0XC4PdgkMQ6E-1" target="IrPFySG2Cv3QOhDxDBdE-2" edge="1">
          <mxGeometry relative="1" as="geometry" />
        </mxCell>
        <mxCell id="IrPFySG2Cv3QOhDxDBdE-5" value="Tombol Exit" style="edgeLabel;html=1;align=center;verticalAlign=middle;resizable=0;points=[];" parent="IrPFySG2Cv3QOhDxDBdE-4" vertex="1" connectable="0">
          <mxGeometry x="0.4338" y="1" relative="1" as="geometry">
            <mxPoint x="12" y="-9" as="offset" />
          </mxGeometry>
        </mxCell>
        <mxCell id="lc8T_BBi0XC4PdgkMQ6E-1" value="Main Menu" style="rounded=0;whiteSpace=wrap;html=1;" parent="1" vertex="1">
          <mxGeometry x="400" y="440" width="120" height="60" as="geometry" />
        </mxCell>
        <mxCell id="lc8T_BBi0XC4PdgkMQ6E-21" style="edgeStyle=orthogonalEdgeStyle;rounded=0;orthogonalLoop=1;jettySize=auto;html=1;entryX=0.5;entryY=1;entryDx=0;entryDy=0;" parent="1" source="lc8T_BBi0XC4PdgkMQ6E-2" target="lc8T_BBi0XC4PdgkMQ6E-6" edge="1">
          <mxGeometry relative="1" as="geometry" />
        </mxCell>
        <mxCell id="lc8T_BBi0XC4PdgkMQ6E-22" value="Setting Selesai Dipilih dan Level Dimulai" style="edgeLabel;html=1;align=center;verticalAlign=middle;resizable=0;points=[];" parent="lc8T_BBi0XC4PdgkMQ6E-21" vertex="1" connectable="0">
          <mxGeometry x="0.4" y="-3" relative="1" as="geometry">
            <mxPoint x="-103" y="16" as="offset" />
          </mxGeometry>
        </mxCell>
        <mxCell id="lc8T_BBi0XC4PdgkMQ6E-2" value="&lt;div&gt;Level Settings&lt;/div&gt;" style="rounded=0;whiteSpace=wrap;html=1;" parent="1" vertex="1">
          <mxGeometry x="160" y="280" width="120" height="60" as="geometry" />
        </mxCell>
        <mxCell id="lc8T_BBi0XC4PdgkMQ6E-32" style="edgeStyle=orthogonalEdgeStyle;rounded=0;orthogonalLoop=1;jettySize=auto;html=1;exitX=0.5;exitY=0;exitDx=0;exitDy=0;entryX=0.25;entryY=1;entryDx=0;entryDy=0;" parent="1" source="lc8T_BBi0XC4PdgkMQ6E-5" target="lc8T_BBi0XC4PdgkMQ6E-7" edge="1">
          <mxGeometry relative="1" as="geometry" />
        </mxCell>
        <mxCell id="lc8T_BBi0XC4PdgkMQ6E-35" value="Tombol Esc" style="edgeLabel;html=1;align=center;verticalAlign=middle;resizable=0;points=[];" parent="lc8T_BBi0XC4PdgkMQ6E-32" vertex="1" connectable="0">
          <mxGeometry x="-0.1298" y="3" relative="1" as="geometry">
            <mxPoint x="12" y="-7" as="offset" />
          </mxGeometry>
        </mxCell>
        <mxCell id="HAbPXkZQNZvrHOk7FKnU-1" style="edgeStyle=orthogonalEdgeStyle;rounded=0;orthogonalLoop=1;jettySize=auto;html=1;exitX=0;exitY=0.5;exitDx=0;exitDy=0;entryX=1;entryY=0.5;entryDx=0;entryDy=0;" edge="1" parent="1" source="lc8T_BBi0XC4PdgkMQ6E-5" target="lc8T_BBi0XC4PdgkMQ6E-2">
          <mxGeometry relative="1" as="geometry" />
        </mxCell>
        <mxCell id="HAbPXkZQNZvrHOk7FKnU-2" value="&lt;div&gt;Kalau dari memencet&amp;nbsp;&lt;/div&gt;&lt;div&gt;tombol start&lt;/div&gt;" style="edgeLabel;html=1;align=center;verticalAlign=middle;resizable=0;points=[];" vertex="1" connectable="0" parent="HAbPXkZQNZvrHOk7FKnU-1">
          <mxGeometry x="0.2833" y="-1" relative="1" as="geometry">
            <mxPoint x="17" y="-19" as="offset" />
          </mxGeometry>
        </mxCell>
        <mxCell id="HAbPXkZQNZvrHOk7FKnU-3" style="edgeStyle=orthogonalEdgeStyle;rounded=0;orthogonalLoop=1;jettySize=auto;html=1;exitX=0.75;exitY=1;exitDx=0;exitDy=0;entryX=0.75;entryY=0;entryDx=0;entryDy=0;" edge="1" parent="1" source="lc8T_BBi0XC4PdgkMQ6E-5" target="lc8T_BBi0XC4PdgkMQ6E-1">
          <mxGeometry relative="1" as="geometry" />
        </mxCell>
        <mxCell id="HAbPXkZQNZvrHOk7FKnU-4" value="&lt;div&gt;Tutorial Selesai dan&lt;/div&gt;&lt;div&gt;Tutorial diakses melalui&lt;/div&gt;&lt;div&gt;Tombol tutorial&lt;br&gt;&lt;/div&gt;" style="edgeLabel;html=1;align=center;verticalAlign=middle;resizable=0;points=[];" vertex="1" connectable="0" parent="HAbPXkZQNZvrHOk7FKnU-3">
          <mxGeometry x="0.06" y="6" relative="1" as="geometry">
            <mxPoint x="54" y="-3" as="offset" />
          </mxGeometry>
        </mxCell>
        <mxCell id="lc8T_BBi0XC4PdgkMQ6E-5" value="Tutorial" style="rounded=0;whiteSpace=wrap;html=1;" parent="1" vertex="1">
          <mxGeometry x="400" y="280" width="120" height="60" as="geometry" />
        </mxCell>
        <mxCell id="lc8T_BBi0XC4PdgkMQ6E-28" style="edgeStyle=orthogonalEdgeStyle;rounded=0;orthogonalLoop=1;jettySize=auto;html=1;entryX=0.003;entryY=0.35;entryDx=0;entryDy=0;entryPerimeter=0;" parent="1" source="lc8T_BBi0XC4PdgkMQ6E-6" target="lc8T_BBi0XC4PdgkMQ6E-7" edge="1">
          <mxGeometry relative="1" as="geometry">
            <Array as="points">
              <mxPoint x="620" y="160" />
            </Array>
          </mxGeometry>
        </mxCell>
        <mxCell id="lc8T_BBi0XC4PdgkMQ6E-29" value="Tombol Esc" style="edgeLabel;html=1;align=center;verticalAlign=middle;resizable=0;points=[];" parent="lc8T_BBi0XC4PdgkMQ6E-28" vertex="1" connectable="0">
          <mxGeometry x="-0.1294" y="3" relative="1" as="geometry">
            <mxPoint y="-7" as="offset" />
          </mxGeometry>
        </mxCell>
        <mxCell id="lc8T_BBi0XC4PdgkMQ6E-6" value="Generated Level" style="whiteSpace=wrap;html=1;" parent="1" vertex="1">
          <mxGeometry x="160" y="140" width="120" height="60" as="geometry" />
        </mxCell>
        <mxCell id="lc8T_BBi0XC4PdgkMQ6E-30" style="edgeStyle=orthogonalEdgeStyle;rounded=0;orthogonalLoop=1;jettySize=auto;html=1;exitX=0;exitY=0.75;exitDx=0;exitDy=0;entryX=1;entryY=0.75;entryDx=0;entryDy=0;" parent="1" source="lc8T_BBi0XC4PdgkMQ6E-7" target="lc8T_BBi0XC4PdgkMQ6E-6" edge="1">
          <mxGeometry relative="1" as="geometry" />
        </mxCell>
        <mxCell id="lc8T_BBi0XC4PdgkMQ6E-31" value="Pause ditutup" style="edgeLabel;html=1;align=center;verticalAlign=middle;resizable=0;points=[];" parent="lc8T_BBi0XC4PdgkMQ6E-30" vertex="1" connectable="0">
          <mxGeometry x="0.2782" y="3" relative="1" as="geometry">
            <mxPoint x="27" y="12" as="offset" />
          </mxGeometry>
        </mxCell>
        <mxCell id="lc8T_BBi0XC4PdgkMQ6E-34" style="edgeStyle=orthogonalEdgeStyle;rounded=0;orthogonalLoop=1;jettySize=auto;html=1;entryX=1;entryY=0.5;entryDx=0;entryDy=0;" parent="1" source="lc8T_BBi0XC4PdgkMQ6E-7" target="lc8T_BBi0XC4PdgkMQ6E-5" edge="1">
          <mxGeometry relative="1" as="geometry">
            <Array as="points">
              <mxPoint x="680" y="310" />
            </Array>
          </mxGeometry>
        </mxCell>
        <mxCell id="lc8T_BBi0XC4PdgkMQ6E-36" value="Pause Ditutup" style="edgeLabel;html=1;align=center;verticalAlign=middle;resizable=0;points=[];" parent="lc8T_BBi0XC4PdgkMQ6E-34" vertex="1" connectable="0">
          <mxGeometry x="0.6236" y="-4" relative="1" as="geometry">
            <mxPoint x="29" y="-6" as="offset" />
          </mxGeometry>
        </mxCell>
        <mxCell id="lc8T_BBi0XC4PdgkMQ6E-37" style="edgeStyle=orthogonalEdgeStyle;rounded=0;orthogonalLoop=1;jettySize=auto;html=1;exitX=0.75;exitY=1;exitDx=0;exitDy=0;entryX=1;entryY=0.5;entryDx=0;entryDy=0;" parent="1" source="lc8T_BBi0XC4PdgkMQ6E-7" target="lc8T_BBi0XC4PdgkMQ6E-1" edge="1">
          <mxGeometry relative="1" as="geometry" />
        </mxCell>
        <mxCell id="lc8T_BBi0XC4PdgkMQ6E-38" value="Kembali ke main menu dipilih" style="edgeLabel;html=1;align=center;verticalAlign=middle;resizable=0;points=[];" parent="lc8T_BBi0XC4PdgkMQ6E-37" vertex="1" connectable="0">
          <mxGeometry x="0.7108" y="-2" relative="1" as="geometry">
            <mxPoint x="23" y="-8" as="offset" />
          </mxGeometry>
        </mxCell>
        <mxCell id="lc8T_BBi0XC4PdgkMQ6E-7" value="Pause" style="whiteSpace=wrap;html=1;" parent="1" vertex="1">
          <mxGeometry x="620" y="140" width="120" height="60" as="geometry" />
        </mxCell>
        <mxCell id="lc8T_BBi0XC4PdgkMQ6E-17" style="edgeStyle=orthogonalEdgeStyle;rounded=0;orthogonalLoop=1;jettySize=auto;html=1;entryX=0.5;entryY=1;entryDx=0;entryDy=0;" parent="1" source="lc8T_BBi0XC4PdgkMQ6E-10" target="lc8T_BBi0XC4PdgkMQ6E-2" edge="1">
          <mxGeometry relative="1" as="geometry">
            <mxPoint x="190" y="360" as="targetPoint" />
            <Array as="points">
              <mxPoint x="220" y="350" />
              <mxPoint x="220" y="350" />
            </Array>
          </mxGeometry>
        </mxCell>
        <mxCell id="lc8T_BBi0XC4PdgkMQ6E-18" value="Pernah" style="edgeLabel;html=1;align=center;verticalAlign=middle;resizable=0;points=[];" parent="lc8T_BBi0XC4PdgkMQ6E-17" vertex="1" connectable="0">
          <mxGeometry x="0.3765" y="-3" relative="1" as="geometry">
            <mxPoint x="17" y="24" as="offset" />
          </mxGeometry>
        </mxCell>
        <mxCell id="lc8T_BBi0XC4PdgkMQ6E-19" style="edgeStyle=orthogonalEdgeStyle;rounded=0;orthogonalLoop=1;jettySize=auto;html=1;exitX=1;exitY=0;exitDx=0;exitDy=0;entryX=0.25;entryY=1;entryDx=0;entryDy=0;" parent="1" source="lc8T_BBi0XC4PdgkMQ6E-10" target="lc8T_BBi0XC4PdgkMQ6E-5" edge="1">
          <mxGeometry relative="1" as="geometry">
            <Array as="points">
              <mxPoint x="340" y="450" />
              <mxPoint x="340" y="380" />
              <mxPoint x="430" y="380" />
            </Array>
          </mxGeometry>
        </mxCell>
        <mxCell id="lc8T_BBi0XC4PdgkMQ6E-20" value="Belum Pernah" style="edgeLabel;html=1;align=center;verticalAlign=middle;resizable=0;points=[];" parent="lc8T_BBi0XC4PdgkMQ6E-19" vertex="1" connectable="0">
          <mxGeometry x="0.2291" relative="1" as="geometry">
            <mxPoint x="16" y="-10" as="offset" />
          </mxGeometry>
        </mxCell>
        <mxCell id="lc8T_BBi0XC4PdgkMQ6E-10" value="Tutorial pernah dijalankan?" style="rhombus;whiteSpace=wrap;html=1;" parent="1" vertex="1">
          <mxGeometry x="150" y="430" width="140" height="80" as="geometry" />
        </mxCell>
        <mxCell id="lc8T_BBi0XC4PdgkMQ6E-26" style="edgeStyle=orthogonalEdgeStyle;rounded=0;orthogonalLoop=1;jettySize=auto;html=1;exitX=1;exitY=0.5;exitDx=0;exitDy=0;entryX=0.5;entryY=1;entryDx=0;entryDy=0;" parent="1" source="lc8T_BBi0XC4PdgkMQ6E-23" target="lc8T_BBi0XC4PdgkMQ6E-1" edge="1">
          <mxGeometry relative="1" as="geometry">
            <mxPoint x="440" y="500" as="targetPoint" />
            <Array as="points">
              <mxPoint x="460" y="660" />
            </Array>
          </mxGeometry>
        </mxCell>
        <mxCell id="lc8T_BBi0XC4PdgkMQ6E-27" value="Tombol Back" style="edgeLabel;html=1;align=center;verticalAlign=middle;resizable=0;points=[];" parent="lc8T_BBi0XC4PdgkMQ6E-26" vertex="1" connectable="0">
          <mxGeometry x="-0.2308" y="-1" relative="1" as="geometry">
            <mxPoint x="-37" y="-11" as="offset" />
          </mxGeometry>
        </mxCell>
        <mxCell id="lc8T_BBi0XC4PdgkMQ6E-23" value="&lt;div&gt;Settings&lt;/div&gt;" style="whiteSpace=wrap;html=1;" parent="1" vertex="1">
          <mxGeometry x="170" y="630" width="120" height="60" as="geometry" />
        </mxCell>
        <mxCell id="IrPFySG2Cv3QOhDxDBdE-2" value="Keluar dari game" style="whiteSpace=wrap;html=1;" parent="1" vertex="1">
          <mxGeometry x="620" y="630" width="120" height="60" as="geometry" />
        </mxCell>
      </root>
    </mxGraphModel>
  </diagram>
</mxfile>
